<mxfile host="app.diagrams.net" modified="2023-06-04T14:52:26.461Z" agent="Mozilla/5.0 (Windows NT 10.0; Win64; x64) AppleWebKit/537.36 (KHTML, like Gecko) Chrome/113.0.0.0 Safari/537.36" etag="UCxBzc_vnD_A0Mzv8eV9" version="21.3.7" type="github">
  <diagram id="C5RBs43oDa-KdzZeNtuy" name="Page-1">
    <mxGraphModel dx="1034" dy="470" grid="1" gridSize="10" guides="1" tooltips="1" connect="1" arrows="1" fold="1" page="1" pageScale="1" pageWidth="827" pageHeight="1169" math="0" shadow="0">
      <root>
        <mxCell id="WIyWlLk6GJQsqaUBKTNV-0" />
        <mxCell id="WIyWlLk6GJQsqaUBKTNV-1" parent="WIyWlLk6GJQsqaUBKTNV-0" />
        <mxCell id="k1WlsJAVdYhXjRgN0Pdc-7" style="edgeStyle=orthogonalEdgeStyle;rounded=0;orthogonalLoop=1;jettySize=auto;html=1;exitX=0.5;exitY=1;exitDx=0;exitDy=0;entryX=0.5;entryY=0;entryDx=0;entryDy=0;" edge="1" parent="WIyWlLk6GJQsqaUBKTNV-1" source="k1WlsJAVdYhXjRgN0Pdc-4" target="k1WlsJAVdYhXjRgN0Pdc-6">
          <mxGeometry relative="1" as="geometry" />
        </mxCell>
        <mxCell id="k1WlsJAVdYhXjRgN0Pdc-4" value="Input: MMsize, CMsize, WordSize, KsetWay" style="shape=parallelogram;perimeter=parallelogramPerimeter;whiteSpace=wrap;html=1;fixedSize=1;" vertex="1" parent="WIyWlLk6GJQsqaUBKTNV-1">
          <mxGeometry x="335" y="220" width="170" height="50" as="geometry" />
        </mxCell>
        <mxCell id="k1WlsJAVdYhXjRgN0Pdc-14" style="edgeStyle=orthogonalEdgeStyle;rounded=0;orthogonalLoop=1;jettySize=auto;html=1;exitX=0.5;exitY=1;exitDx=0;exitDy=0;entryX=0.5;entryY=0;entryDx=0;entryDy=0;" edge="1" parent="WIyWlLk6GJQsqaUBKTNV-1" source="k1WlsJAVdYhXjRgN0Pdc-6" target="k1WlsJAVdYhXjRgN0Pdc-13">
          <mxGeometry relative="1" as="geometry" />
        </mxCell>
        <mxCell id="k1WlsJAVdYhXjRgN0Pdc-15" style="edgeStyle=orthogonalEdgeStyle;rounded=0;orthogonalLoop=1;jettySize=auto;html=1;exitX=0;exitY=0.5;exitDx=0;exitDy=0;entryX=0.5;entryY=0;entryDx=0;entryDy=0;" edge="1" parent="WIyWlLk6GJQsqaUBKTNV-1" source="k1WlsJAVdYhXjRgN0Pdc-6" target="k1WlsJAVdYhXjRgN0Pdc-11">
          <mxGeometry relative="1" as="geometry" />
        </mxCell>
        <mxCell id="k1WlsJAVdYhXjRgN0Pdc-16" style="edgeStyle=orthogonalEdgeStyle;rounded=0;orthogonalLoop=1;jettySize=auto;html=1;exitX=1;exitY=0.5;exitDx=0;exitDy=0;entryX=0.5;entryY=0;entryDx=0;entryDy=0;" edge="1" parent="WIyWlLk6GJQsqaUBKTNV-1" source="k1WlsJAVdYhXjRgN0Pdc-6" target="k1WlsJAVdYhXjRgN0Pdc-12">
          <mxGeometry relative="1" as="geometry" />
        </mxCell>
        <mxCell id="k1WlsJAVdYhXjRgN0Pdc-6" value="is button &lt;br&gt;click" style="rhombus;whiteSpace=wrap;html=1;" vertex="1" parent="WIyWlLk6GJQsqaUBKTNV-1">
          <mxGeometry x="380" y="320" width="80" height="80" as="geometry" />
        </mxCell>
        <mxCell id="k1WlsJAVdYhXjRgN0Pdc-10" style="edgeStyle=orthogonalEdgeStyle;rounded=0;orthogonalLoop=1;jettySize=auto;html=1;exitX=0.5;exitY=1;exitDx=0;exitDy=0;entryX=0.5;entryY=0;entryDx=0;entryDy=0;" edge="1" parent="WIyWlLk6GJQsqaUBKTNV-1" source="k1WlsJAVdYhXjRgN0Pdc-8" target="k1WlsJAVdYhXjRgN0Pdc-4">
          <mxGeometry relative="1" as="geometry" />
        </mxCell>
        <mxCell id="k1WlsJAVdYhXjRgN0Pdc-8" value="start" style="shape=process;whiteSpace=wrap;html=1;backgroundOutline=1;" vertex="1" parent="WIyWlLk6GJQsqaUBKTNV-1">
          <mxGeometry x="377.5" y="130" width="85" height="40" as="geometry" />
        </mxCell>
        <mxCell id="k1WlsJAVdYhXjRgN0Pdc-32" style="edgeStyle=orthogonalEdgeStyle;rounded=0;orthogonalLoop=1;jettySize=auto;html=1;exitX=0.5;exitY=1;exitDx=0;exitDy=0;entryX=0.5;entryY=0;entryDx=0;entryDy=0;" edge="1" parent="WIyWlLk6GJQsqaUBKTNV-1" source="k1WlsJAVdYhXjRgN0Pdc-11" target="k1WlsJAVdYhXjRgN0Pdc-27">
          <mxGeometry relative="1" as="geometry" />
        </mxCell>
        <mxCell id="k1WlsJAVdYhXjRgN0Pdc-11" value="Direct Mapping Event" style="shape=process;whiteSpace=wrap;html=1;backgroundOutline=1;" vertex="1" parent="WIyWlLk6GJQsqaUBKTNV-1">
          <mxGeometry x="80" y="440" width="120" height="50" as="geometry" />
        </mxCell>
        <mxCell id="k1WlsJAVdYhXjRgN0Pdc-30" style="edgeStyle=orthogonalEdgeStyle;rounded=0;orthogonalLoop=1;jettySize=auto;html=1;exitX=0.5;exitY=1;exitDx=0;exitDy=0;entryX=0.5;entryY=0;entryDx=0;entryDy=0;" edge="1" parent="WIyWlLk6GJQsqaUBKTNV-1" source="k1WlsJAVdYhXjRgN0Pdc-12" target="k1WlsJAVdYhXjRgN0Pdc-29">
          <mxGeometry relative="1" as="geometry" />
        </mxCell>
        <mxCell id="k1WlsJAVdYhXjRgN0Pdc-12" value="Set-Associative Mapping Event" style="shape=process;whiteSpace=wrap;html=1;backgroundOutline=1;" vertex="1" parent="WIyWlLk6GJQsqaUBKTNV-1">
          <mxGeometry x="640" y="440" width="120" height="50" as="geometry" />
        </mxCell>
        <mxCell id="k1WlsJAVdYhXjRgN0Pdc-31" style="edgeStyle=orthogonalEdgeStyle;rounded=0;orthogonalLoop=1;jettySize=auto;html=1;exitX=0.5;exitY=1;exitDx=0;exitDy=0;entryX=0.5;entryY=0;entryDx=0;entryDy=0;" edge="1" parent="WIyWlLk6GJQsqaUBKTNV-1" source="k1WlsJAVdYhXjRgN0Pdc-13" target="k1WlsJAVdYhXjRgN0Pdc-28">
          <mxGeometry relative="1" as="geometry" />
        </mxCell>
        <mxCell id="k1WlsJAVdYhXjRgN0Pdc-13" value="Fully/Associative Mapping Event" style="shape=process;whiteSpace=wrap;html=1;backgroundOutline=1;" vertex="1" parent="WIyWlLk6GJQsqaUBKTNV-1">
          <mxGeometry x="360" y="440" width="120" height="50" as="geometry" />
        </mxCell>
        <mxCell id="k1WlsJAVdYhXjRgN0Pdc-17" value="DMapBtn clicked" style="text;html=1;strokeColor=none;fillColor=none;align=center;verticalAlign=middle;whiteSpace=wrap;rounded=0;" vertex="1" parent="WIyWlLk6GJQsqaUBKTNV-1">
          <mxGeometry x="180" y="330" width="100" height="30" as="geometry" />
        </mxCell>
        <mxCell id="k1WlsJAVdYhXjRgN0Pdc-18" value="SAMapBtn clicked" style="text;html=1;strokeColor=none;fillColor=none;align=center;verticalAlign=middle;whiteSpace=wrap;rounded=0;" vertex="1" parent="WIyWlLk6GJQsqaUBKTNV-1">
          <mxGeometry x="560" y="330" width="100" height="30" as="geometry" />
        </mxCell>
        <mxCell id="k1WlsJAVdYhXjRgN0Pdc-19" value="FAMapBtn clicked" style="text;whiteSpace=wrap;html=1;" vertex="1" parent="WIyWlLk6GJQsqaUBKTNV-1">
          <mxGeometry x="430" y="400" width="110" height="30" as="geometry" />
        </mxCell>
        <mxCell id="k1WlsJAVdYhXjRgN0Pdc-38" style="edgeStyle=orthogonalEdgeStyle;rounded=0;orthogonalLoop=1;jettySize=auto;html=1;exitX=0.5;exitY=1;exitDx=0;exitDy=0;entryX=0.5;entryY=0;entryDx=0;entryDy=0;" edge="1" parent="WIyWlLk6GJQsqaUBKTNV-1" source="k1WlsJAVdYhXjRgN0Pdc-27" target="k1WlsJAVdYhXjRgN0Pdc-34">
          <mxGeometry relative="1" as="geometry" />
        </mxCell>
        <mxCell id="k1WlsJAVdYhXjRgN0Pdc-27" value="call checkFields&lt;br&gt;method" style="rhombus;whiteSpace=wrap;html=1;" vertex="1" parent="WIyWlLk6GJQsqaUBKTNV-1">
          <mxGeometry x="100" y="540" width="80" height="80" as="geometry" />
        </mxCell>
        <mxCell id="k1WlsJAVdYhXjRgN0Pdc-39" style="edgeStyle=orthogonalEdgeStyle;rounded=0;orthogonalLoop=1;jettySize=auto;html=1;exitX=0.5;exitY=1;exitDx=0;exitDy=0;entryX=0.5;entryY=0;entryDx=0;entryDy=0;" edge="1" parent="WIyWlLk6GJQsqaUBKTNV-1" source="k1WlsJAVdYhXjRgN0Pdc-28" target="k1WlsJAVdYhXjRgN0Pdc-35">
          <mxGeometry relative="1" as="geometry" />
        </mxCell>
        <mxCell id="k1WlsJAVdYhXjRgN0Pdc-28" value="call checkFields&lt;br&gt;method" style="rhombus;whiteSpace=wrap;html=1;" vertex="1" parent="WIyWlLk6GJQsqaUBKTNV-1">
          <mxGeometry x="380" y="540" width="80" height="80" as="geometry" />
        </mxCell>
        <mxCell id="k1WlsJAVdYhXjRgN0Pdc-40" style="edgeStyle=orthogonalEdgeStyle;rounded=0;orthogonalLoop=1;jettySize=auto;html=1;exitX=0.5;exitY=1;exitDx=0;exitDy=0;entryX=0.5;entryY=0;entryDx=0;entryDy=0;" edge="1" parent="WIyWlLk6GJQsqaUBKTNV-1" source="k1WlsJAVdYhXjRgN0Pdc-29" target="k1WlsJAVdYhXjRgN0Pdc-37">
          <mxGeometry relative="1" as="geometry" />
        </mxCell>
        <mxCell id="k1WlsJAVdYhXjRgN0Pdc-29" value="call checkFields&lt;br&gt;method" style="rhombus;whiteSpace=wrap;html=1;" vertex="1" parent="WIyWlLk6GJQsqaUBKTNV-1">
          <mxGeometry x="660" y="540" width="80" height="80" as="geometry" />
        </mxCell>
        <mxCell id="k1WlsJAVdYhXjRgN0Pdc-43" style="edgeStyle=orthogonalEdgeStyle;rounded=0;orthogonalLoop=1;jettySize=auto;html=1;exitX=0.5;exitY=1;exitDx=0;exitDy=0;" edge="1" parent="WIyWlLk6GJQsqaUBKTNV-1" source="k1WlsJAVdYhXjRgN0Pdc-34" target="k1WlsJAVdYhXjRgN0Pdc-42">
          <mxGeometry relative="1" as="geometry" />
        </mxCell>
        <mxCell id="k1WlsJAVdYhXjRgN0Pdc-34" value="Direct Mapping Calculation" style="shape=process;whiteSpace=wrap;html=1;backgroundOutline=1;" vertex="1" parent="WIyWlLk6GJQsqaUBKTNV-1">
          <mxGeometry x="80" y="670" width="120" height="50" as="geometry" />
        </mxCell>
        <mxCell id="k1WlsJAVdYhXjRgN0Pdc-44" style="edgeStyle=orthogonalEdgeStyle;rounded=0;orthogonalLoop=1;jettySize=auto;html=1;exitX=0.5;exitY=1;exitDx=0;exitDy=0;" edge="1" parent="WIyWlLk6GJQsqaUBKTNV-1" source="k1WlsJAVdYhXjRgN0Pdc-35">
          <mxGeometry relative="1" as="geometry">
            <mxPoint x="420" y="810" as="targetPoint" />
          </mxGeometry>
        </mxCell>
        <mxCell id="k1WlsJAVdYhXjRgN0Pdc-35" value="Fully/Associative Mapping Calculation" style="shape=process;whiteSpace=wrap;html=1;backgroundOutline=1;" vertex="1" parent="WIyWlLk6GJQsqaUBKTNV-1">
          <mxGeometry x="360" y="670" width="120" height="50" as="geometry" />
        </mxCell>
        <mxCell id="k1WlsJAVdYhXjRgN0Pdc-45" style="edgeStyle=orthogonalEdgeStyle;rounded=0;orthogonalLoop=1;jettySize=auto;html=1;exitX=0.5;exitY=1;exitDx=0;exitDy=0;entryX=0.5;entryY=0;entryDx=0;entryDy=0;" edge="1" parent="WIyWlLk6GJQsqaUBKTNV-1" source="k1WlsJAVdYhXjRgN0Pdc-37" target="k1WlsJAVdYhXjRgN0Pdc-42">
          <mxGeometry relative="1" as="geometry" />
        </mxCell>
        <mxCell id="k1WlsJAVdYhXjRgN0Pdc-37" value="Set-Associative Mapping Calculation" style="shape=process;whiteSpace=wrap;html=1;backgroundOutline=1;" vertex="1" parent="WIyWlLk6GJQsqaUBKTNV-1">
          <mxGeometry x="640" y="670" width="120" height="50" as="geometry" />
        </mxCell>
        <mxCell id="k1WlsJAVdYhXjRgN0Pdc-42" value="Output: BitsBox" style="shape=parallelogram;perimeter=parallelogramPerimeter;whiteSpace=wrap;html=1;fixedSize=1;" vertex="1" parent="WIyWlLk6GJQsqaUBKTNV-1">
          <mxGeometry x="335" y="810" width="170" height="50" as="geometry" />
        </mxCell>
        <mxCell id="k1WlsJAVdYhXjRgN0Pdc-46" value="fields not empty" style="text;html=1;strokeColor=none;fillColor=none;align=center;verticalAlign=middle;whiteSpace=wrap;rounded=0;" vertex="1" parent="WIyWlLk6GJQsqaUBKTNV-1">
          <mxGeometry x="150" y="630" width="60" height="30" as="geometry" />
        </mxCell>
        <mxCell id="k1WlsJAVdYhXjRgN0Pdc-47" value="fields not empty" style="text;html=1;strokeColor=none;fillColor=none;align=center;verticalAlign=middle;whiteSpace=wrap;rounded=0;" vertex="1" parent="WIyWlLk6GJQsqaUBKTNV-1">
          <mxGeometry x="430" y="630" width="60" height="30" as="geometry" />
        </mxCell>
        <mxCell id="k1WlsJAVdYhXjRgN0Pdc-48" value="fields not empty" style="text;html=1;strokeColor=none;fillColor=none;align=center;verticalAlign=middle;whiteSpace=wrap;rounded=0;" vertex="1" parent="WIyWlLk6GJQsqaUBKTNV-1">
          <mxGeometry x="710" y="630" width="60" height="30" as="geometry" />
        </mxCell>
      </root>
    </mxGraphModel>
  </diagram>
</mxfile>
